<?xml version="1.0" encoding="utf-8"?>
<!-- Generator: Adobe Illustrator 25.2.1, SVG Export Plug-In . SVG Version: 6.00 Build 0)  -->
<svg version="1.1" id="Layer_1" xmlns="http://www.w3.org/2000/svg" xmlns:xlink="http://www.w3.org/1999/xlink" x="0px" y="0px"
	 viewBox="0 0 49 49" style="enable-background:new 0 0 49 49;" xml:space="preserve">
<style type="text/css">
	.st0{fill:#00BABC;}
</style>
<g>
	<path class="st0" d="M18.7,38l-4.1-1.6c-0.1,0-0.1-0.1-0.1-0.1l-1.6-4.1c0-0.1-0.1-0.1-0.1-0.1c-0.1,0-0.2,0-0.3,0.1l-1.6,4.1
		c0,0.1-0.1,0.1-0.1,0.1L6.5,38c-0.1,0-0.1,0.1-0.1,0.1c0,0.1,0,0.2,0.1,0.3l4.2,1.6c0.1,0,0.1,0.1,0.1,0.1l1.6,4.1
		c0,0.1,0.1,0.1,0.1,0.1c0.1,0,0.2,0,0.3-0.1l1.6-4.1c0-0.1,0.1-0.1,0.1-0.1l4.1-1.6c0.1,0,0.1-0.1,0.1-0.1
		C18.8,38.2,18.8,38.1,18.7,38z"/>
	<path class="st0" d="M6.7,17l1.7,6.2c0.1,0.2,0.3,0.3,0.4,0.2c0.1,0,0.2-0.1,0.2-0.2l1.7-6.2l0.2-0.2l6.2-1.7
		c0.2-0.1,0.3-0.3,0.2-0.4c0-0.1-0.1-0.2-0.2-0.2l-6.2-1.7l-0.2-0.2L9,6.4C8.9,6.2,8.7,6.1,8.6,6.1c-0.1,0-0.2,0.1-0.2,0.2l-1.7,6.2
		l-0.2,0.2l-6.2,1.7C0.1,14.5,0,14.7,0,14.9c0,0.1,0.1,0.2,0.2,0.2l6.2,1.7L6.7,17z"/>
	<ellipse transform="matrix(0.2426 -0.9701 0.9701 0.2426 -20.5217 30.3926)" class="st0" cx="9.2" cy="28.3" rx="2.6" ry="2.6"/>
	<ellipse transform="matrix(0.3048 -0.9524 0.9524 0.3048 3.2789 31.2488)" class="st0" cx="23" cy="13.4" rx="2.6" ry="2.6"/>
	<path class="st0" d="M14.6,8.1c1.9-0.3,3.9-0.6,5.9-0.7c2.7-0.2,5.3-0.2,7.9,0l3.8,7l0.5,0.1c1.2,0.2,2.3,0.4,3.5,0.7
		c0.2,1.4,1.3,2.5,2.7,2.5c1.6,0.1,2.9-1.1,3-2.7c0.1-1.6-1.1-2.9-2.7-3c-1,0-1.9,0.4-2.5,1.2c-1-0.2-2.1-0.5-3.1-0.6l-2.7-4.9
		c3.5,0.4,7,1.1,10.4,2.1c0.1,1.4,1.2,2.6,2.7,2.7c1.6,0.1,2.9-1.1,3-2.7s-1.1-2.9-2.7-3c-1,0-1.8,0.4-2.4,1.1
		c-7-2.1-14.2-2.9-21.5-2.4c-2,0.1-4.1,0.4-6.1,0.7c-0.6,0.1-0.9,0.6-0.8,1.2S14,8.2,14.6,8.1z"/>
	<path class="st0" d="M13,22.2c0.1,0.5,0.5,0.8,1,0.8c0.1,0,0.2,0,0.2,0c2.9-0.7,5.8-1.1,8.7-1.2c1,0,2,0,3,0c0.3,1,1.2,1.7,2.3,1.7
		c1.4,0.1,2.7-1,2.7-2.5c0.1-1.4-1-2.7-2.5-2.7c-1.1-0.1-2,0.5-2.5,1.4c-1.1,0-2.1,0-3.2,0c-3.1,0.1-6.1,0.6-9.1,1.3
		C13.2,21.1,12.9,21.7,13,22.2z"/>
	<path class="st0" d="M45,30.2c-0.8,0-1.4,0.3-2,0.8c-3.5-1.4-7.1-2.4-10.8-2.8l5.3-3.9c1.7,0.4,3.3,0.9,4.9,1.4
		c0.1,1.5,1.4,2.6,2.9,2.6c1.6,0,2.8-1.3,2.8-2.9c0-1.6-1.3-2.8-2.9-2.8c-0.9,0-1.7,0.5-2.2,1.1c-1.8-0.6-3.6-1.1-5.5-1.5l-0.4-0.1
		L29.1,28c-1.4-0.1-2.9-0.1-4.3,0c-1.8,0.1-3.6,0.4-5.3,0.7c-0.5,0.1-0.9,0.6-0.8,1.2c0.1,0.5,0.6,0.9,1.2,0.8
		c1.7-0.3,3.4-0.6,5-0.7c1.5-0.1,2.9-0.1,4.4,0c0,0,0.1,0,0.1,0c0,0,0.1,0,0.1,0c4.3,0.2,8.6,1.2,12.6,2.8c0,0.1,0,0.1,0,0.2
		c0,1.6,1.3,2.8,2.9,2.8c1.6,0,2.8-1.3,2.8-2.9C47.8,31.4,46.5,30.2,45,30.2z"/>
	<path class="st0" d="M38.7,36.9c-0.9,0-1.6,0.5-2.1,1.1c-3.6-1.1-7.4-1.5-11.2-1.3c-1.4,0.1-2.9,0.3-4.3,0.6
		c-0.5,0.1-0.9,0.7-0.8,1.2c0.1,0.5,0.7,0.9,1.2,0.8c1.3-0.3,2.7-0.5,4-0.6c3.5-0.2,7.1,0.2,10.5,1.2c0.2,1.3,1.3,2.3,2.7,2.3
		c1.5,0,2.7-1.3,2.6-2.8C41.4,38,40.2,36.8,38.7,36.9z"/>
</g>
</svg>
