<svg width="16" height="16" viewBox="0 0 16 16" fill="none" xmlns="http://www.w3.org/2000/svg">
<g clip-path="url(#clip0_475_9177)">
<circle cx="8" cy="8" r="8" fill="#D9D9D9"/>
<path d="M4 10V12H12V10" stroke="#0C4A47" stroke-linecap="round"/>
<path d="M8.5 3C8.5 2.72386 8.27614 2.5 8 2.5C7.72386 2.5 7.5 2.72386 7.5 3L8.5 3ZM7.64645 10.3536C7.84171 10.5488 8.15829 10.5488 8.35355 10.3536L11.5355 7.17157C11.7308 6.97631 11.7308 6.65973 11.5355 6.46447C11.3403 6.2692 11.0237 6.2692 10.8284 6.46447L8 9.29289L5.17157 6.46447C4.97631 6.2692 4.65973 6.2692 4.46447 6.46447C4.2692 6.65973 4.2692 6.97631 4.46447 7.17157L7.64645 10.3536ZM7.5 3L7.5 10L8.5 10L8.5 3L7.5 3Z" fill="#0C4A47"/>
</g>
<defs>
<clipPath id="clip0_475_9177">
<rect width="16" height="16" fill="white"/>
</clipPath>
</defs>
</svg>
