<svg width="36" height="36" viewBox="0 0 36 36" fill="none" xmlns="http://www.w3.org/2000/svg">
<g clip-path="url(#clip0_256_732)">
<path d="M36 18C36 22.3829 34.4008 26.6152 31.5025 29.903C28.6042 33.1908 24.6059 35.3082 20.2576 35.8579C15.9093 36.4076 11.5098 35.3519 7.88445 32.8888C4.25911 30.4257 1.65701 26.7245 0.566284 22.4795C-0.524441 18.2344 -0.0288452 13.7373 1.9601 9.83167C3.94905 5.92603 7.29468 2.88028 11.3694 1.26576C15.4441 -0.348765 19.9679 -0.421112 24.0921 1.06229C28.2164 2.54569 31.6577 5.4829 33.7705 9.32294L27.4623 12.7938C26.1946 10.4897 24.1298 8.72741 21.6553 7.83737C19.1807 6.94733 16.4665 6.99074 14.0216 7.95945C11.5768 8.92817 9.56943 10.7556 8.37606 13.099C7.18269 15.4424 6.88533 18.1407 7.53977 20.6877C8.19421 23.2347 9.75546 25.4554 11.9307 26.9333C14.1059 28.4111 16.7456 29.0445 19.3545 28.7147C21.9635 28.3849 24.3625 27.1145 26.1015 25.1418C27.8405 23.1691 28.8 20.6297 28.8 18H36Z" fill="white"/>
</g>
<defs>
<clipPath id="clip0_256_732">
<rect width="36" height="36" fill="white"/>
</clipPath>
</defs>
</svg>
