<svg width="16" height="16" viewBox="0 0 16 16" fill="none" xmlns="http://www.w3.org/2000/svg">
<g clip-path="url(#clip0_237_396)">
<circle cx="8" cy="8" r="8" fill="#D9D9D9"/>
<path d="M8.01795 5.22C7.76195 5.22 7.54995 5.14 7.38195 4.98C7.22195 4.812 7.14195 4.604 7.14195 4.356C7.14195 4.1 7.22195 3.892 7.38195 3.732C7.54995 3.564 7.76195 3.48 8.01795 3.48C8.27395 3.48 8.48195 3.564 8.64195 3.732C8.80995 3.892 8.89395 4.1 8.89395 4.356C8.89395 4.604 8.80995 4.812 8.64195 4.98C8.48195 5.14 8.27395 5.22 8.01795 5.22ZM6.39795 12V11.808L7.20195 11.424V7.776L6.43395 7.212V7.068L8.74995 6.408H8.89395V11.424L9.60195 11.808V12H6.39795Z" fill="#0C4A47"/>
</g>
<defs>
<clipPath id="clip0_237_396">
<rect width="16" height="16" fill="white"/>
</clipPath>
</defs>
</svg>
