<svg width="36" height="36" viewBox="0 0 36 36" fill="none" xmlns="http://www.w3.org/2000/svg">
<path d="M34.4959 0H17.1602C17.1602 2.07549 17.9846 4.06598 19.4522 5.53357C20.9198 7.00117 22.9103 7.82565 24.9858 7.82565H28.1792V10.9088C28.182 15.2269 31.6818 18.7267 35.9999 18.7294V1.50397C35.9999 0.67335 35.3265 0 34.4959 0Z" fill="white"/>
<path d="M25.9183 8.63779H8.58252C8.58528 12.9559 12.0851 16.4557 16.4032 16.4584H19.5966V19.5516C19.6021 23.8697 23.1042 27.3672 27.4222 27.3672V10.1418C27.4222 9.31114 26.7489 8.63779 25.9183 8.63779Z" fill="white"/>
<path d="M17.3357 17.2706H0C0 21.5926 3.50366 25.0962 7.82565 25.0962H11.0291V28.1794C11.0319 32.4935 14.5256 35.9917 18.8397 36V18.7745C18.8397 17.9439 18.1664 17.2706 17.3357 17.2706Z" fill="white"/>
</svg>
