<svg width="36" height="36" viewBox="0 0 36 36" fill="none" xmlns="http://www.w3.org/2000/svg">
<path d="M34.4961 0H17.1604C17.1604 2.07549 17.9849 4.06598 19.4525 5.53357C20.9201 7.00117 22.9106 7.82565 24.9861 7.82565H28.1795V10.9088C28.1822 15.2269 31.682 18.7267 36.0001 18.7294V1.50397C36.0001 0.67335 35.3268 0 34.4961 0Z" fill="#006DA8"/>
<path d="M25.9185 8.63782H8.58276C8.58553 12.9559 12.0853 16.4557 16.4034 16.4585H19.5968V19.5516C19.6024 23.8697 23.1044 27.3672 27.4225 27.3672V10.1418C27.4225 9.31117 26.7491 8.63782 25.9185 8.63782Z" fill="#006DA8"/>
<path d="M17.3357 17.2706H0C0 21.5926 3.50366 25.0962 7.82565 25.0962H11.0291V28.1794C11.0319 32.4935 14.5256 35.9917 18.8397 36V18.7745C18.8397 17.9439 18.1664 17.2706 17.3357 17.2706Z" fill="#006DA8"/>
</svg>
