<svg width="36" height="36" viewBox="0 0 36 36" fill="none" xmlns="http://www.w3.org/2000/svg">
<path d="M14.9304 34.5822L12.097 17.5822C12.0462 17.2774 12.2813 17 12.5902 17H30.4098C30.7187 17 30.9538 17.2774 30.903 17.5822L28.0696 34.5822C28.0295 34.8233 27.8209 35 27.5764 35H15.4236C15.1791 35 14.9705 34.8233 14.9304 34.5822Z" stroke="white"/>
<path d="M21.5 20V32" stroke="white" stroke-linecap="round"/>
<path d="M16 20L18 32" stroke="white" stroke-linecap="round"/>
<path d="M25 32L27 20" stroke="white" stroke-linecap="round"/>
<g clip-path="url(#clip0_259_67)">
<circle cx="21.5" cy="14.5" r="8" stroke="white"/>
<line x1="21.5" y1="8.5" x2="21.5" y2="9.5" stroke="white" stroke-linecap="round"/>
<line x1="27.5" y1="14.5" x2="26.5" y2="14.5" stroke="white" stroke-linecap="round"/>
<line x1="16.5" y1="14.5" x2="15.5" y2="14.5" stroke="white" stroke-linecap="round"/>
<path d="M21.5 14.5L19 12" stroke="white" stroke-linecap="round"/>
<path d="M21.5 14.5L25.5 10.5" stroke="white" stroke-linecap="round"/>
</g>
<rect x="4.45898" y="13.8232" width="19" height="3" rx="0.5" transform="rotate(-45 4.45898 13.8232)" stroke="white"/>
<path d="M6.80668 8.39994C6.61142 8.20468 6.61142 7.8881 6.80668 7.69283L11.0493 3.45019C11.2446 3.25493 11.5612 3.25493 11.7564 3.45019L13.2917 4.98549L8.34198 9.93524L6.80668 8.39994Z" stroke="white"/>
<defs>
<clipPath id="clip0_259_67">
<rect width="17" height="11" fill="white" transform="translate(13 6)"/>
</clipPath>
</defs>
</svg>
