<svg width="36" height="36" viewBox="0 0 36 36" fill="none" xmlns="http://www.w3.org/2000/svg">
<g clip-path="url(#clip0_259_67)">
<path d="M14.9304 34.5822L12.097 17.5822C12.0462 17.2774 12.2813 17 12.5902 17H30.4098C30.7187 17 30.9538 17.2774 30.903 17.5822L28.0696 34.5822C28.0295 34.8233 27.8209 35 27.5764 35H15.4236C15.1791 35 14.9705 34.8233 14.9304 34.5822Z" stroke="white"/>
<path d="M21.5 20V32" stroke="white" stroke-linecap="round"/>
<path d="M16 20L18 32" stroke="white" stroke-linecap="round"/>
<path d="M25 32L27 20" stroke="white" stroke-linecap="round"/>
<g clip-path="url(#clip1_259_67)">
<circle cx="21.5" cy="14.5" r="8" stroke="white"/>
<line x1="21.5" y1="8.5" x2="21.5" y2="9.5" stroke="white" stroke-linecap="round"/>
<line x1="27.5" y1="14.5" x2="26.5" y2="14.5" stroke="white" stroke-linecap="round"/>
<line x1="16.5" y1="14.5" x2="15.5" y2="14.5" stroke="white" stroke-linecap="round"/>
<path d="M21.5 14.5L19 12" stroke="white" stroke-linecap="round"/>
<path d="M21.5 14.5L25.5 10.5" stroke="white" stroke-linecap="round"/>
</g>
<mask id="path-11-inside-1_259_67" fill="white">
<rect x="4.19922" y="13.7058" width="19" height="3" rx="0.5" transform="rotate(-45 4.19922 13.7058)"/>
</mask>
<rect x="4.19922" y="13.7058" width="19" height="3" rx="0.5" transform="rotate(-45 4.19922 13.7058)" stroke="white" stroke-width="2" mask="url(#path-11-inside-1_259_67)"/>
<mask id="path-12-inside-2_259_67" fill="white">
<path d="M6.54691 8.28251C6.35165 8.08725 6.35165 7.77066 6.54691 7.5754L10.7896 3.33276C10.9848 3.1375 11.3014 3.1375 11.4967 3.33276L13.6848 5.52088L8.73503 10.4706L6.54691 8.28251Z"/>
</mask>
<path d="M6.54691 8.28251C6.35165 8.08725 6.35165 7.77066 6.54691 7.5754L10.7896 3.33276C10.9848 3.1375 11.3014 3.1375 11.4967 3.33276L13.6848 5.52088L8.73503 10.4706L6.54691 8.28251Z" stroke="white" stroke-width="2" mask="url(#path-12-inside-2_259_67)"/>
</g>
<defs>
<clipPath id="clip0_259_67">
<rect width="36" height="36" fill="white"/>
</clipPath>
<clipPath id="clip1_259_67">
<rect width="17" height="11" fill="white" transform="translate(13 6)"/>
</clipPath>
</defs>
</svg>
